<svg width="31" height="26" viewBox="0 0 31 26" fill="none" xmlns="http://www.w3.org/2000/svg">
<path fill-rule="evenodd" clip-rule="evenodd" d="M21.2498 2.26049C18.3777 1.34561 15.2365 1.43802 12.4357 2.51867C9.63557 3.59906 7.38645 5.58507 6.10656 8.07819C5.38679 9.48024 5.00028 10.99 4.95398 12.5111H7.4792C7.87265 12.5111 8.11195 12.9445 7.90233 13.2775L4.67275 18.4075C4.47665 18.719 4.02258 18.719 3.82648 18.4075L0.596898 13.2775C0.387282 12.9445 0.62658 12.5111 1.02003 12.5111H3.5534C3.60006 10.7685 4.03929 9.03961 4.86109 7.43881C6.3078 4.62074 8.83173 2.40862 11.9318 1.21252C15.0311 0.016681 18.5 -0.0847394 21.6747 0.926537C24.8499 1.93798 27.5203 3.99611 29.1589 6.72113C30.7988 9.44842 31.2836 12.6437 30.5115 15.687C29.7399 18.7285 27.7726 21.3848 25.0083 23.1554C22.2451 24.9252 18.874 25.6905 15.5423 25.3132C12.2104 24.9358 9.13674 23.4401 6.91838 21.0987C6.65248 20.8181 6.66443 20.375 6.94507 20.1091C7.22571 19.8432 7.66876 19.8552 7.93466 20.1358C9.91476 22.2257 12.6789 23.5799 15.6999 23.9221C18.721 24.2643 21.7684 23.568 24.2532 21.9765C26.7367 20.3857 28.4756 18.0188 29.1545 15.3427C29.833 12.6682 29.4102 9.85587 27.9591 7.44256C26.5066 5.02698 24.1213 3.17521 21.2498 2.26049ZM13.9143 6.50513C14.3285 6.50513 14.6643 6.84091 14.6643 7.25513V15.0758H21.6908C22.105 15.0758 22.4408 15.4116 22.4408 15.8258C22.4408 16.24 22.105 16.5758 21.6908 16.5758H14.3114C14.1962 16.6478 14.0601 16.6895 13.9143 16.6895C13.7592 16.6895 13.615 16.6424 13.4954 16.5617C13.1509 16.4939 12.891 16.1902 12.891 15.8258C12.891 15.5927 12.9974 15.3843 13.1643 15.2468V7.25513C13.1643 6.84091 13.5001 6.50513 13.9143 6.50513Z" fill="#FCFEFF"/>
</svg>
