<svg width="29" height="26" viewBox="0 0 29 26" fill="none" xmlns="http://www.w3.org/2000/svg">
<path d="M8.22691 0.196472H5.60226C2.57701 0.196472 0.988403 1.65336 0.988403 4.41512V6.82215C0.988403 9.58391 2.57701 11.0408 5.58845 11.0408H8.2131C11.2245 11.0408 12.8131 9.58391 12.8131 6.82215V4.41512C12.827 1.65336 11.2384 0.196472 8.22691 0.196472Z" fill="#0177FB"/>
<path opacity="0.6" d="M24.0164 0.196472H21.3917C18.3803 0.196472 16.7917 1.65336 16.7917 4.41512V6.82215C16.7917 9.58391 18.3803 11.0408 21.3917 11.0408H24.0164C27.0278 11.0408 28.6164 9.58391 28.6164 6.82215V4.41512C28.6164 1.65336 27.0278 0.196472 24.0164 0.196472Z" fill="#0177FB"/>
<path d="M24.0164 14.6763H21.3917C18.3803 14.6763 16.7917 16.1332 16.7917 18.895V21.302C16.7917 24.0638 18.3803 25.5206 21.3917 25.5206H24.0164C27.0278 25.5206 28.6164 24.0638 28.6164 21.302V18.895C28.6164 16.1332 27.0278 14.6763 24.0164 14.6763V14.6763Z" fill="#0177FB"/>
<path opacity="0.6" d="M8.22691 14.6763H5.60226C2.57701 14.6763 0.988403 16.1332 0.988403 18.895V21.302C0.988403 24.0764 2.57701 25.5333 5.58845 25.5333H8.2131C11.2245 25.5333 12.8131 24.0764 12.8131 21.3147V18.9076C12.827 16.1332 11.2384 14.6763 8.22691 14.6763V14.6763Z" fill="#0177FB"/>
</svg>
