<svg width="29" height="27" viewBox="0 0 29 27" fill="none" xmlns="http://www.w3.org/2000/svg">
<path d="M23.1929 9.82684C20.5329 9.82684 18.3741 7.84701 18.3741 5.40756C18.3741 2.96812 20.5329 0.988281 23.1929 0.988281C25.8529 0.988281 28.0117 2.96812 28.0117 5.40756C28.0117 7.84701 25.8529 9.82684 23.1929 9.82684ZM23.1929 2.75599C21.5995 2.75599 20.3016 3.94625 20.3016 5.40756C20.3016 6.86887 21.5995 8.05913 23.1929 8.05913C24.7863 8.05913 26.0842 6.86887 26.0842 5.40756C26.0842 3.94625 24.7863 2.75599 23.1929 2.75599Z" fill="white"/>
<path d="M14.1976 15.7197H7.77254C7.24568 15.7197 6.80878 15.319 6.80878 14.8358C6.80878 14.3527 7.24568 13.952 7.77254 13.952H14.1976C14.7245 13.952 15.1614 14.3527 15.1614 14.8358C15.1614 15.319 14.7245 15.7197 14.1976 15.7197Z" fill="white"/>
<path d="M19.3377 20.4331H7.77254C7.24568 20.4331 6.80878 20.0324 6.80878 19.5492C6.80878 19.0661 7.24568 18.6654 7.77254 18.6654H19.3377C19.8646 18.6654 20.3015 19.0661 20.3015 19.5492C20.3015 20.0324 19.8646 20.4331 19.3377 20.4331Z" fill="white"/>
<path d="M18.0527 26.3255H10.3426C3.36497 26.3255 0.383728 23.5914 0.383728 17.1923V10.1215C0.383728 3.72234 3.36497 0.988281 10.3426 0.988281H16.7677C17.2946 0.988281 17.7315 1.38896 17.7315 1.87214C17.7315 2.35531 17.2946 2.75599 16.7677 2.75599H10.3426C4.41869 2.75599 2.31126 4.68869 2.31126 10.1215V17.1923C2.31126 22.6251 4.41869 24.5578 10.3426 24.5578H18.0527C23.9767 24.5578 26.0841 22.6251 26.0841 17.1923V11.2999C26.0841 10.8168 26.521 10.4161 27.0479 10.4161C27.5747 10.4161 28.0116 10.8168 28.0116 11.2999V17.1923C28.0116 23.5914 25.0304 26.3255 18.0527 26.3255Z" fill="white"/>
</svg>
