<svg width="47" height="44" viewBox="0 0 47 44" fill="none" xmlns="http://www.w3.org/2000/svg">
<path d="M29.565 39.9971H29.3156C20.797 39.9971 16.6912 36.9179 15.9813 30.0205C15.9046 29.2991 16.4802 28.6481 17.286 28.5777C18.0534 28.5073 18.7825 29.0528 18.8592 29.7742C19.4156 35.2991 22.2552 37.3578 29.3348 37.3578H29.5842C37.393 37.3578 40.1557 34.8241 40.1557 27.6628V16.1906C40.1557 9.02931 37.393 6.49559 29.5842 6.49559H29.3348C22.2168 6.49559 19.3773 8.58943 18.8592 14.2199C18.7633 14.9413 18.0918 15.4868 17.286 15.4164C17.0969 15.4029 16.9126 15.3552 16.7436 15.2762C16.5746 15.1972 16.4243 15.0883 16.3014 14.9559C16.1784 14.8235 16.0851 14.6701 16.0269 14.5046C15.9687 14.339 15.9467 14.1646 15.9621 13.9912C16.6145 6.98826 20.7395 3.85629 29.3156 3.85629H29.565C38.9854 3.85629 43.0145 7.55131 43.0145 16.1906V27.6628C43.0145 36.3021 38.9854 39.9971 29.565 39.9971Z" fill="white"/>
<path d="M29.1046 23.2463H7.27086C6.48423 23.2463 5.83191 22.6481 5.83191 21.9267C5.83191 21.2053 6.48423 20.607 7.27086 20.607H29.1046C29.8912 20.607 30.5435 21.2053 30.5435 21.9267C30.5435 22.6481 29.8912 23.2463 29.1046 23.2463Z" fill="white"/>
<path d="M11.5494 29.1408C11.1848 29.1408 10.8203 29.0176 10.5325 28.7537L4.10518 22.8592C3.83758 22.6109 3.6875 22.2758 3.6875 21.9267C3.6875 21.5775 3.83758 21.2425 4.10518 20.9941L10.5325 15.0997C11.0889 14.5894 12.0098 14.5894 12.5662 15.0997C13.1226 15.61 13.1226 16.4545 12.5662 16.9648L7.15576 21.9267L12.5662 26.8886C13.1226 27.3988 13.1226 28.2434 12.5662 28.7537C12.2976 29.0176 11.9139 29.1408 11.5494 29.1408Z" fill="white"/>
</svg>
