<svg width="31" height="29" viewBox="0 0 31 29" fill="none" xmlns="http://www.w3.org/2000/svg">
<path d="M12.4217 13.7229L2.3678 22.9432C1.25728 23.9616 1.25728 25.6129 2.3678 26.6313C3.47831 27.6498 5.27882 27.6498 6.38934 26.6313L16.4432 17.4111" stroke="white" stroke-width="3.06255" stroke-linecap="round" stroke-linejoin="round"/>
<path d="M22.5769 17.8867L28.0911 22.9437C29.2017 23.9621 29.2017 25.6134 28.0911 26.6318C26.9807 27.6503 25.1801 27.6503 24.0696 26.6318L15.2422 18.5364" stroke="white" stroke-width="3.06255" stroke-linecap="round" stroke-linejoin="round"/>
<path d="M7.70462 7.59084L4.68846 8.51287L1.6723 3.90272L3.68307 2.05865L8.71002 4.82475L7.70462 7.59084ZM7.70462 7.59084L11.7287 11.2813" stroke="white" stroke-width="3.06255" stroke-linecap="round" stroke-linejoin="round"/>
<path d="M12.422 13.7227C11.2222 10.9153 11.4568 7.23165 13.9301 4.96343C16.4034 2.69519 20.9678 2.19734 23.4813 3.58038L19.1579 7.54525L18.7561 11.6019L23.1794 11.2334L27.5028 7.26849C29.0109 9.57357 28.4681 13.7596 25.9948 16.0278C23.5214 18.296 19.5048 18.5112 16.4436 17.4108" stroke="white" stroke-width="3.06255" stroke-linecap="round" stroke-linejoin="round"/>
</svg>
