<svg width="33" height="26" viewBox="0 0 33 26" fill="none" xmlns="http://www.w3.org/2000/svg">
<path d="M31.1338 17.9222C31.2648 17.1246 31.2648 16.31 31.1338 15.5124L32.4333 14.6695C32.5844 14.5733 32.6499 14.3753 32.5995 14.1887C32.2621 12.9668 31.6828 11.858 30.9273 10.9416C30.8115 10.8002 30.6251 10.7662 30.474 10.8624L29.1745 11.7053C28.6254 11.1792 27.9958 10.7719 27.3159 10.5004V8.81461C27.3159 8.62227 27.195 8.45256 27.0288 8.41297C25.9055 8.13012 24.7622 8.14144 23.6944 8.41297C23.5281 8.45256 23.4073 8.62227 23.4073 8.81461V10.5004C22.7273 10.7719 22.0977 11.1792 21.5487 11.7053L20.2491 10.8624C20.1031 10.7662 19.9117 10.8002 19.7958 10.9416C19.0403 11.858 18.461 12.9668 18.1236 14.1887C18.0732 14.3753 18.1437 14.5733 18.2898 14.6695L19.5893 15.5124C19.4583 16.31 19.4583 17.1246 19.5893 17.9222L18.2898 18.7651C18.1387 18.8612 18.0732 19.0592 18.1236 19.2459C18.461 20.4678 19.0403 21.5709 19.7958 22.493C19.9117 22.6344 20.098 22.6683 20.2491 22.5722L21.5487 21.7293C22.0977 22.2554 22.7273 22.6627 23.4073 22.9342V24.62C23.4073 24.8123 23.5281 24.982 23.6944 25.0216C24.8176 25.3044 25.9609 25.2931 27.0288 25.0216C27.195 24.982 27.3159 24.8123 27.3159 24.62V22.9342C27.9958 22.6627 28.6254 22.2554 29.1745 21.7293L30.474 22.5722C30.6201 22.6683 30.8115 22.6344 30.9273 22.493C31.6828 21.5766 32.2621 20.4678 32.5995 19.2459C32.6499 19.0592 32.5794 18.8612 32.4333 18.7651L31.1338 17.9222ZM25.3666 19.4609C24.0167 19.4609 22.9237 18.2277 22.9237 16.7173C22.9237 15.2069 24.0218 13.9737 25.3666 13.9737C26.7114 13.9737 27.8095 15.2069 27.8095 16.7173C27.8095 18.2277 26.7165 19.4609 25.3666 19.4609ZM5.21912 11.2867C6.99714 11.2867 8.44272 9.66314 8.44272 7.66626C8.44272 5.66937 6.99714 4.04585 5.21912 4.04585C3.44111 4.04585 1.99553 5.66937 1.99553 7.66626C1.99553 9.66314 3.44111 11.2867 5.21912 11.2867ZM16.5017 13.0969C16.5974 13.0969 16.6881 13.0686 16.7838 13.0629C17.2018 11.8354 17.8163 10.6814 18.6122 9.71405C18.9849 9.2615 19.5138 9.00128 20.0678 9.00128C20.4154 9.00128 20.7579 9.10311 21.055 9.3011L21.4529 9.56131C21.4932 9.53303 21.5335 9.5104 21.5738 9.48212C21.9264 8.65621 22.138 7.7398 22.138 6.76681C22.138 3.26519 19.6145 0.431091 16.4967 0.431091C13.3788 0.431091 10.8604 3.25954 10.8604 6.76115C10.8604 10.2628 13.3839 13.0969 16.5017 13.0969ZM21.8005 24.0995C21.6846 24.0316 21.5688 23.9524 21.458 23.8789C21.045 24.1504 20.6873 24.4333 20.0728 24.4333C19.5238 24.4333 18.995 24.1731 18.6172 23.7205C17.6954 22.6005 16.9903 21.2371 16.5924 19.7833C16.0534 17.8317 17.8466 16.9718 17.8919 16.9379C17.8868 16.7908 17.8868 16.6437 17.8919 16.4967L17.494 16.2364C17.3026 16.112 17.1414 15.9536 17.0004 15.7782C16.8341 15.7896 16.673 15.8122 16.5067 15.8122C15.2677 15.8122 14.1092 15.4728 13.0565 14.9071H12.6384C9.42994 14.9071 6.83092 17.826 6.83092 21.4238V23.053C6.83092 24.5521 7.91385 25.7683 9.24862 25.7683H22.1128C21.9264 25.4289 21.8005 25.0442 21.8005 24.62V24.0995ZM9.10255 14.1491C8.51827 13.4985 7.71741 13.0969 6.83092 13.0969H3.60732C1.82931 13.0969 0.383728 14.7204 0.383728 16.7173V18.5275C0.383728 19.5288 1.104 20.3377 1.99553 20.3377H5.31482C5.63215 17.6563 7.07269 15.3992 9.10255 14.1491Z" fill="white"/>
</svg>
