<svg width="23" height="27" viewBox="0 0 23 27" fill="none" xmlns="http://www.w3.org/2000/svg">
<path d="M13.7471 7.69209V0.961884H2.35541C1.59786 0.961884 0.988403 1.49139 0.988403 2.14957V25.1114C0.988403 25.7696 1.59786 26.2991 2.35541 26.2991H21.4935C22.251 26.2991 22.8605 25.7696 22.8605 25.1114V8.87977H15.1141C14.3623 8.87977 13.7471 8.34532 13.7471 7.69209ZM17.3925 19.371C17.3925 19.6976 17.0849 19.9648 16.709 19.9648H7.13993C6.764 19.9648 6.45643 19.6976 6.45643 19.371V18.9751C6.45643 18.6485 6.764 18.3812 7.13993 18.3812H16.709C17.0849 18.3812 17.3925 18.6485 17.3925 18.9751V19.371ZM17.3925 16.2038C17.3925 16.5304 17.0849 16.7977 16.709 16.7977H7.13993C6.764 16.7977 6.45643 16.5304 6.45643 16.2038V15.8079C6.45643 15.4813 6.764 15.2141 7.13993 15.2141H16.709C17.0849 15.2141 17.3925 15.4813 17.3925 15.8079V16.2038ZM17.3925 12.6408V13.0367C17.3925 13.3633 17.0849 13.6305 16.709 13.6305H7.13993C6.764 13.6305 6.45643 13.3633 6.45643 13.0367V12.6408C6.45643 12.3142 6.764 12.0469 7.13993 12.0469H16.709C17.0849 12.0469 17.3925 12.3142 17.3925 12.6408ZM22.8605 6.99433V7.2962H15.5698V0.961884H15.9172C16.2818 0.961884 16.6292 1.0856 16.8855 1.30829L22.4618 6.158C22.7181 6.38069 22.8605 6.68256 22.8605 6.99433Z" fill="white"/>
</svg>
