<svg width="29" height="26" viewBox="0 0 29 26" fill="none" xmlns="http://www.w3.org/2000/svg">
<path fill-rule="evenodd" clip-rule="evenodd" d="M12.5718 4.82147C13.0622 2.96763 15.9378 2.96763 16.4282 4.82147C16.5774 5.38635 17.0119 5.85188 17.5974 6.07435C18.1829 6.29681 18.849 6.24944 19.3901 5.94687C21.1664 4.9545 23.2005 6.8189 22.1184 8.44893C21.7889 8.94496 21.7374 9.55541 21.9797 10.092C22.222 10.6286 22.729 11.027 23.3444 11.1642C25.3658 11.614 25.3658 14.2512 23.3444 14.7009C22.7284 14.8378 22.2208 15.2362 21.9782 15.7731C21.7357 16.3101 21.7873 16.921 22.1172 17.4173C23.1993 19.0462 21.1664 20.9117 19.389 19.9193C18.8481 19.6172 18.1825 19.5699 17.5973 19.7921C17.0122 20.0143 16.5778 20.4793 16.4282 21.0437C15.9378 22.8975 13.0622 22.8975 12.5718 21.0437C12.4226 20.4788 11.9881 20.0133 11.4026 19.7908C10.8171 19.5683 10.151 19.6157 9.60985 19.9183C7.83361 20.9106 5.7995 19.0462 6.8816 17.4162C7.21104 16.9202 7.26257 16.3097 7.02028 15.7731C6.77799 15.2365 6.27099 14.8381 5.65561 14.7009C3.63417 14.2512 3.63417 11.614 5.65561 11.1642C6.27155 11.0274 6.77917 10.629 7.02175 10.092C7.26432 9.55504 7.21267 8.94412 6.88275 8.44787C5.80065 6.8189 7.83361 4.95344 9.611 5.94582C10.7622 6.58769 12.2541 6.01972 12.5718 4.82147Z" stroke="white" stroke-width="1.75" stroke-linecap="round" stroke-linejoin="round"/>
<ellipse cx="14.5" cy="12.9325" rx="3.45349" ry="3.16716" stroke="white" stroke-width="1.75" stroke-linecap="round" stroke-linejoin="round"/>
</svg>
